<mxfile host="app.diagrams.net" agent="Mozilla/5.0 (X11; Linux x86_64; rv:109.0) Gecko/20100101 Firefox/114.0" version="24.7.6">
  <diagram name="PÃ¡gina-1" id="Jx-Cr21jr8irGLXOOyPi">
    <mxGraphModel dx="2200" dy="1275" grid="1" gridSize="10" guides="1" tooltips="1" connect="1" arrows="1" fold="1" page="1" pageScale="1" pageWidth="850" pageHeight="1100" math="0" shadow="0">
      <root>
        <mxCell id="0" />
        <mxCell id="1" parent="0" />
        <mxCell id="u9mKOHVxwRh-RmLvf2e5-12" style="edgeStyle=orthogonalEdgeStyle;rounded=0;orthogonalLoop=1;jettySize=auto;html=1;" edge="1" parent="1" source="u9mKOHVxwRh-RmLvf2e5-1" target="u9mKOHVxwRh-RmLvf2e5-2">
          <mxGeometry relative="1" as="geometry" />
        </mxCell>
        <mxCell id="u9mKOHVxwRh-RmLvf2e5-13" style="edgeStyle=orthogonalEdgeStyle;rounded=0;orthogonalLoop=1;jettySize=auto;html=1;" edge="1" parent="1" source="u9mKOHVxwRh-RmLvf2e5-1" target="u9mKOHVxwRh-RmLvf2e5-3">
          <mxGeometry relative="1" as="geometry" />
        </mxCell>
        <mxCell id="u9mKOHVxwRh-RmLvf2e5-14" style="edgeStyle=orthogonalEdgeStyle;rounded=0;orthogonalLoop=1;jettySize=auto;html=1;" edge="1" parent="1" source="u9mKOHVxwRh-RmLvf2e5-1" target="u9mKOHVxwRh-RmLvf2e5-5">
          <mxGeometry relative="1" as="geometry" />
        </mxCell>
        <mxCell id="u9mKOHVxwRh-RmLvf2e5-15" style="edgeStyle=orthogonalEdgeStyle;rounded=0;orthogonalLoop=1;jettySize=auto;html=1;" edge="1" parent="1" source="u9mKOHVxwRh-RmLvf2e5-1" target="u9mKOHVxwRh-RmLvf2e5-7">
          <mxGeometry relative="1" as="geometry" />
        </mxCell>
        <mxCell id="u9mKOHVxwRh-RmLvf2e5-16" style="edgeStyle=orthogonalEdgeStyle;rounded=0;orthogonalLoop=1;jettySize=auto;html=1;" edge="1" parent="1" source="u9mKOHVxwRh-RmLvf2e5-1" target="u9mKOHVxwRh-RmLvf2e5-4">
          <mxGeometry relative="1" as="geometry" />
        </mxCell>
        <mxCell id="u9mKOHVxwRh-RmLvf2e5-17" style="edgeStyle=orthogonalEdgeStyle;rounded=0;orthogonalLoop=1;jettySize=auto;html=1;" edge="1" parent="1" source="u9mKOHVxwRh-RmLvf2e5-1" target="u9mKOHVxwRh-RmLvf2e5-8">
          <mxGeometry relative="1" as="geometry" />
        </mxCell>
        <mxCell id="u9mKOHVxwRh-RmLvf2e5-18" style="edgeStyle=orthogonalEdgeStyle;rounded=0;orthogonalLoop=1;jettySize=auto;html=1;" edge="1" parent="1" source="u9mKOHVxwRh-RmLvf2e5-1" target="u9mKOHVxwRh-RmLvf2e5-11">
          <mxGeometry relative="1" as="geometry" />
        </mxCell>
        <mxCell id="u9mKOHVxwRh-RmLvf2e5-19" style="edgeStyle=orthogonalEdgeStyle;rounded=0;orthogonalLoop=1;jettySize=auto;html=1;" edge="1" parent="1" source="u9mKOHVxwRh-RmLvf2e5-1" target="u9mKOHVxwRh-RmLvf2e5-10">
          <mxGeometry relative="1" as="geometry" />
        </mxCell>
        <mxCell id="u9mKOHVxwRh-RmLvf2e5-20" style="edgeStyle=orthogonalEdgeStyle;rounded=0;orthogonalLoop=1;jettySize=auto;html=1;" edge="1" parent="1" source="u9mKOHVxwRh-RmLvf2e5-1" target="u9mKOHVxwRh-RmLvf2e5-6">
          <mxGeometry relative="1" as="geometry" />
        </mxCell>
        <mxCell id="u9mKOHVxwRh-RmLvf2e5-21" style="edgeStyle=orthogonalEdgeStyle;rounded=0;orthogonalLoop=1;jettySize=auto;html=1;" edge="1" parent="1" source="u9mKOHVxwRh-RmLvf2e5-1" target="u9mKOHVxwRh-RmLvf2e5-9">
          <mxGeometry relative="1" as="geometry" />
        </mxCell>
        <mxCell id="u9mKOHVxwRh-RmLvf2e5-1" value="&lt;span style=&quot;font-family: monospace; font-size: 13px;&quot;&gt;&lt;span style=&quot;color: rgb(0, 0, 0); font-size: 13px;&quot;&gt;empleados&lt;/span&gt;&lt;br style=&quot;font-size: 13px;&quot;&gt;&lt;/span&gt;" style="rounded=0;whiteSpace=wrap;html=1;fillColor=#d5e8d4;strokeColor=#82b366;fontSize=13;labelBackgroundColor=none;" vertex="1" parent="1">
          <mxGeometry x="30" y="590" width="120" height="60" as="geometry" />
        </mxCell>
        <mxCell id="u9mKOHVxwRh-RmLvf2e5-2" value="&lt;span style=&quot;font-family: monospace; font-size: 8px;&quot;&gt;&lt;span style=&quot;color: rgb(0, 0, 0); font-size: 8px;&quot;&gt;rfc&lt;/span&gt;&lt;br style=&quot;font-size: 8px;&quot;&gt;&lt;/span&gt;" style="ellipse;whiteSpace=wrap;html=1;fillColor=#fff2cc;strokeColor=#d6b656;fontSize=8;labelBackgroundColor=none;" vertex="1" parent="1">
          <mxGeometry x="200" y="480" width="80" height="40" as="geometry" />
        </mxCell>
        <mxCell id="u9mKOHVxwRh-RmLvf2e5-3" value="&lt;span style=&quot;font-family: monospace; font-size: 8px;&quot;&gt;&lt;span style=&quot;color: rgb(0, 0, 0); font-size: 8px;&quot;&gt;directivo&lt;/span&gt;&lt;br style=&quot;font-size: 8px;&quot;&gt;&lt;/span&gt;" style="ellipse;whiteSpace=wrap;html=1;fillColor=#fff2cc;strokeColor=#d6b656;fontSize=8;labelBackgroundColor=none;" vertex="1" parent="1">
          <mxGeometry x="240" y="630" width="80" height="40" as="geometry" />
        </mxCell>
        <mxCell id="u9mKOHVxwRh-RmLvf2e5-4" value="&lt;span style=&quot;font-family: monospace; font-size: 8px;&quot;&gt;&lt;span style=&quot;color: rgb(0, 0, 0); font-size: 8px;&quot;&gt;descripcion_puesto&lt;/span&gt;&lt;br style=&quot;font-size: 8px;&quot;&gt;&lt;/span&gt;" style="ellipse;whiteSpace=wrap;html=1;fillColor=#fff2cc;strokeColor=#d6b656;fontSize=8;labelBackgroundColor=none;" vertex="1" parent="1">
          <mxGeometry x="310" y="680" width="80" height="40" as="geometry" />
        </mxCell>
        <mxCell id="u9mKOHVxwRh-RmLvf2e5-5" value="&lt;span style=&quot;font-family: monospace; font-size: 8px;&quot;&gt;&lt;span style=&quot;color: rgb(0, 0, 0); font-size: 8px;&quot;&gt;puesto&lt;/span&gt;&lt;br style=&quot;font-size: 8px;&quot;&gt;&lt;/span&gt;" style="ellipse;whiteSpace=wrap;html=1;fillColor=#fff2cc;strokeColor=#d6b656;fontSize=8;labelBackgroundColor=none;" vertex="1" parent="1">
          <mxGeometry x="290" y="540" width="80" height="40" as="geometry" />
        </mxCell>
        <mxCell id="u9mKOHVxwRh-RmLvf2e5-6" value="&lt;span style=&quot;font-family: monospace; font-size: 8px;&quot;&gt;&lt;span style=&quot;color: rgb(0, 0, 0); font-size: 8px;&quot;&gt;centro_trabajo&lt;/span&gt;&lt;br style=&quot;font-size: 8px;&quot;&gt;&lt;/span&gt;" style="ellipse;whiteSpace=wrap;html=1;fillColor=#fff2cc;strokeColor=#d6b656;fontSize=8;labelBackgroundColor=none;" vertex="1" parent="1">
          <mxGeometry x="470" y="690" width="80" height="40" as="geometry" />
        </mxCell>
        <mxCell id="u9mKOHVxwRh-RmLvf2e5-7" value="&lt;span style=&quot;font-family: monospace; font-size: 8px;&quot;&gt;&lt;span style=&quot;color: rgb(0, 0, 0); font-size: 8px;&quot;&gt;fecha_nacimiento&lt;/span&gt;&lt;br style=&quot;font-size: 8px;&quot;&gt;&lt;/span&gt;" style="ellipse;whiteSpace=wrap;html=1;fillColor=#fff2cc;strokeColor=#d6b656;fontSize=8;labelBackgroundColor=none;" vertex="1" parent="1">
          <mxGeometry x="350" y="470" width="80" height="40" as="geometry" />
        </mxCell>
        <mxCell id="u9mKOHVxwRh-RmLvf2e5-8" value="&lt;span style=&quot;font-family: monospace; font-size: 8px;&quot;&gt;&lt;span style=&quot;color: rgb(0, 0, 0); font-size: 8px;&quot;&gt;apellido_materno&lt;/span&gt;&lt;br style=&quot;font-size: 8px;&quot;&gt;&lt;/span&gt;" style="ellipse;whiteSpace=wrap;html=1;fillColor=#fff2cc;strokeColor=#d6b656;fontSize=8;labelBackgroundColor=none;" vertex="1" parent="1">
          <mxGeometry x="425" y="550" width="80" height="40" as="geometry" />
        </mxCell>
        <mxCell id="u9mKOHVxwRh-RmLvf2e5-9" value="&lt;span style=&quot;font-family: monospace; font-size: 8px;&quot;&gt;&lt;span style=&quot;color: rgb(0, 0, 0); font-size: 8px;&quot;&gt;apellido_paterno&lt;/span&gt;&lt;br style=&quot;font-size: 8px;&quot;&gt;&lt;/span&gt;" style="ellipse;whiteSpace=wrap;html=1;fillColor=#fff2cc;strokeColor=#d6b656;fontSize=8;labelBackgroundColor=none;" vertex="1" parent="1">
          <mxGeometry x="520" y="510" width="80" height="40" as="geometry" />
        </mxCell>
        <mxCell id="u9mKOHVxwRh-RmLvf2e5-10" value="&lt;span style=&quot;font-family: monospace; font-size: 8px;&quot;&gt;&lt;span style=&quot;color: rgb(0, 0, 0); font-size: 8px;&quot;&gt;nombre&lt;/span&gt;&lt;br style=&quot;font-size: 8px;&quot;&gt;&lt;/span&gt;" style="ellipse;whiteSpace=wrap;html=1;fillColor=#fff2cc;strokeColor=#d6b656;fontSize=8;labelBackgroundColor=none;" vertex="1" parent="1">
          <mxGeometry x="510" y="600" width="80" height="40" as="geometry" />
        </mxCell>
        <mxCell id="u9mKOHVxwRh-RmLvf2e5-11" value="&lt;u&gt;&lt;span style=&quot;font-family: monospace; font-size: 8px;&quot;&gt;&lt;span style=&quot;color: rgb(0, 0, 0); font-size: 8px;&quot;&gt;num_empleado&lt;/span&gt;&lt;br style=&quot;font-size: 8px;&quot;&gt;&lt;/span&gt;&lt;/u&gt;" style="ellipse;whiteSpace=wrap;html=1;fillColor=#fff2cc;strokeColor=#d6b656;fontSize=8;labelBackgroundColor=none;" vertex="1" parent="1">
          <mxGeometry x="385" y="600" width="80" height="40" as="geometry" />
        </mxCell>
      </root>
    </mxGraphModel>
  </diagram>
</mxfile>
